<?xml version="1.0" standalone="no"?>
<!DOCTYPE svg PUBLIC "-//W3C//DTD SVG 20010904//EN"
 "http://www.w3.org/TR/2001/REC-SVG-20010904/DTD/svg10.dtd">
<svg version="1.0" xmlns="http://www.w3.org/2000/svg"
 width="2084.000000pt" height="2084.000000pt" viewBox="0 0 2084.000000 2084.000000"
 preserveAspectRatio="xMidYMid meet">
<metadata>
Created by potrace 1.14, written by Peter Selinger 2001-2017
</metadata>
<g transform="translate(0.000000,2084.000000) scale(0.100000,-0.100000)"
fill="#000000" stroke="none">
<path d="M12668 17686 c-61 -16 -55 -12 -391 -280 -297 -236 -767 -602 -1002
-781 -166 -126 -353 -249 -535 -353 -80 -45 -201 -123 -270 -172 -167 -120
-748 -508 -985 -657 -237 -149 -1047 -636 -1215 -730 -69 -39 -242 -132 -385
-207 -286 -152 -347 -193 -405 -274 -54 -75 -78 -143 -100 -292 -32 -212 -109
-499 -240 -890 -143 -427 -417 -1050 -651 -1477 -304 -557 -557 -938 -944
-1423 -215 -270 -629 -738 -757 -855 -24 -22 -88 -82 -143 -134 -232 -218
-643 -558 -913 -755 -521 -381 -1233 -793 -1762 -1021 -324 -140 -464 -210
-501 -253 -46 -51 -82 -138 -87 -204 -3 -45 1 -67 20 -110 54 -117 138 -172
260 -171 59 1 89 10 260 78 632 252 1247 577 1813 956 505 338 732 514 1200
928 167 148 598 578 747 746 397 448 553 646 803 1025 523 791 782 1275 1030
1920 179 467 347 985 424 1311 17 69 37 145 47 168 25 62 94 117 275 215 290
157 749 416 924 521 673 403 1059 650 1525 973 965 670 1095 765 1870 1381
353 281 407 328 437 382 28 53 26 239 -4 294 -40 74 -110 122 -211 144 -64 13
-74 13 -134 -3z"/>
<path d="M11767 15561 c-68 -27 -112 -64 -144 -119 -25 -41 -28 -57 -28 -132
0 -78 4 -97 53 -230 29 -80 85 -208 124 -285 110 -220 153 -320 218 -517 44
-131 79 -217 126 -303 36 -66 143 -277 238 -470 95 -192 281 -546 413 -785
132 -239 287 -520 343 -625 128 -236 235 -417 358 -605 52 -80 176 -273 275
-430 208 -329 333 -518 427 -645 36 -49 146 -205 245 -345 222 -318 279 -392
505 -660 100 -118 223 -269 273 -334 144 -187 353 -422 667 -749 87 -92 499
-453 750 -658 389 -319 770 -569 1170 -768 390 -194 706 -305 1125 -397 145
-31 287 -35 366 -9 79 27 142 93 168 179 24 78 25 100 10 162 -15 59 -82 132
-152 167 -34 16 -123 41 -229 63 -656 136 -1158 377 -1816 871 -355 267 -593
475 -923 809 -421 428 -706 758 -1145 1329 -257 333 -342 453 -671 940 -316
467 -349 521 -649 1033 -718 1223 -1101 1939 -1366 2551 -44 101 -125 275
-180 385 -55 111 -119 248 -140 306 -47 125 -65 156 -119 205 -84 76 -202 102
-292 66z"/>
<path d="M10375 14427 c-28 -13 -69 -45 -92 -71 -49 -56 -59 -94 -98 -366 -23
-160 -120 -595 -176 -782 -62 -212 -225 -610 -374 -913 -189 -383 -301 -543
-745 -1059 -353 -410 -522 -561 -1190 -1067 -707 -535 -1111 -794 -1954 -1254
-89 -48 -151 -106 -184 -170 -22 -42 -27 -63 -27 -130 0 -91 20 -140 81 -199
55 -54 98 -70 196 -74 l87 -4 243 120 c374 185 638 343 1263 757 834 553 1255
882 1694 1324 l233 236 212 0 c116 0 303 -6 416 -13 113 -6 360 -17 550 -22
542 -17 621 -27 636 -86 10 -40 -3 -187 -25 -292 -35 -159 -132 -515 -153
-555 -36 -71 -50 -73 -373 -43 -604 57 -801 77 -815 82 -8 3 -114 9 -235 14
-121 5 -244 14 -274 20 -29 5 -93 10 -141 10 -77 0 -94 -3 -149 -31 -96 -48
-142 -124 -143 -234 -1 -118 54 -239 130 -290 22 -14 65 -30 98 -35 222 -37
422 -60 564 -64 91 -3 214 -13 273 -21 193 -27 417 -45 563 -45 218 0 232 -14
160 -158 -98 -196 -242 -419 -396 -613 -49 -62 -103 -139 -118 -169 -24 -49
-27 -66 -27 -155 1 -83 4 -107 22 -141 64 -121 235 -182 383 -138 42 12 67 29
111 75 78 79 182 215 301 392 183 274 255 397 351 607 46 100 92 162 136 184
49 25 108 26 272 4 202 -26 550 -31 613 -9 60 21 122 84 143 144 27 81 24 207
-8 277 -36 76 -71 115 -135 146 -46 22 -74 28 -187 35 -262 17 -397 30 -421
39 -14 5 -32 20 -41 34 -16 24 -15 34 28 203 40 155 62 274 108 565 14 89 45
148 89 171 40 21 114 20 485 -7 322 -23 662 -39 735 -34 147 11 243 115 257
276 14 164 -75 292 -222 321 -44 9 -206 17 -1039 50 l-199 7 -27 31 c-26 29
-27 34 -33 184 -4 113 -16 217 -45 389 -22 129 -47 288 -56 353 -22 154 -107
484 -139 540 -56 95 -153 157 -259 165 -59 4 -75 1 -122 -22 -87 -43 -147
-124 -166 -227 -9 -45 -5 -71 26 -203 91 -389 133 -641 154 -945 12 -165 5
-212 -31 -231 -13 -7 -50 -8 -116 -1 -53 6 -100 8 -104 5 -7 -4 -923 40 -1038
50 -59 5 -76 17 -86 57 -6 23 2 36 44 83 28 31 69 93 92 138 23 46 82 157 132
248 110 201 150 286 262 556 116 278 136 334 200 553 96 330 152 579 200 886
41 264 28 402 -48 483 -71 76 -235 105 -332 59z"/>
<path d="M8893 7789 c-18 -11 -46 -41 -63 -67 l-32 -47 5 -165 c4 -148 10
-190 56 -419 29 -139 49 -263 46 -275 -19 -68 -30 -80 -129 -144 -204 -131
-299 -226 -375 -371 -95 -184 -106 -326 -36 -468 116 -236 377 -333 897 -333
221 0 403 17 698 66 222 36 252 46 278 95 20 38 8 118 -23 149 -26 25 -26 25
-193 24 -134 -1 -209 -8 -377 -34 -335 -52 -781 -53 -881 -2 -85 43 -163 157
-164 238 0 96 117 251 263 348 111 73 470 252 642 320 123 48 230 82 437 140
107 30 157 121 127 229 -16 60 -56 79 -154 74 -101 -5 -203 -38 -403 -128
-173 -78 -221 -90 -275 -64 -66 31 -76 68 -88 336 -17 394 -26 428 -132 489
-61 35 -81 37 -124 9z"/>
<path d="M12955 7460 c-84 -20 -185 -104 -227 -189 -32 -65 -31 -168 1 -231
37 -71 75 -112 136 -149 108 -65 265 -52 357 29 146 128 119 385 -52 495 -61
39 -158 59 -215 45z m88 -191 c12 -6 39 -27 60 -47 30 -29 37 -43 37 -75 0
-106 -83 -139 -190 -74 -61 36 -66 47 -50 108 21 79 85 118 143 88z"/>
<path d="M11653 7320 c-47 -28 -94 -97 -174 -255 -212 -416 -436 -718 -718
-966 l-64 -57 5 -85 c5 -97 21 -131 73 -153 40 -16 132 -19 170 -4 14 5 99 83
189 172 246 246 419 490 662 934 92 167 99 183 102 244 4 77 -14 112 -79 160
-51 37 -116 41 -166 10z"/>
<path d="M12390 7259 c-43 -9 -97 -68 -106 -116 -11 -56 -1 -89 124 -405 183
-463 235 -644 276 -962 20 -151 42 -193 121 -231 75 -37 114 -30 176 35 26 26
50 61 53 77 14 62 -56 406 -141 693 -82 278 -261 738 -334 856 -28 46 -100 69
-169 53z"/>
<path d="M7390 6578 c-38 -14 -86 -64 -151 -159 -113 -164 -217 -240 -360
-262 -86 -13 -171 -1 -341 48 -178 52 -496 108 -580 102 -114 -7 -263 -91
-374 -209 -94 -101 -183 -291 -170 -363 8 -43 66 -95 105 -95 48 0 120 66 166
151 52 96 149 195 234 237 81 40 137 42 296 7 63 -13 145 -29 182 -35 37 -6
136 -27 218 -47 243 -58 357 -49 527 39 139 72 262 208 344 383 42 88 41 127
-6 173 -34 35 -57 42 -90 30z"/>
<path d="M4283 6385 c-18 -8 -53 -28 -78 -45 -25 -17 -75 -45 -110 -62 -109
-51 -186 -41 -301 37 -46 31 -84 32 -112 3 -29 -32 -42 -71 -42 -126 0 -111
-44 -176 -155 -229 -38 -18 -92 -48 -119 -66 -41 -26 -59 -32 -106 -32 -49 0
-65 5 -112 37 -65 43 -122 61 -167 52 -49 -10 -61 -36 -61 -131 0 -136 -18
-161 -165 -235 -118 -60 -233 -137 -276 -186 -25 -28 -30 -41 -25 -66 9 -42
36 -67 85 -76 65 -12 112 3 207 63 49 31 116 66 149 78 74 26 190 29 254 5 98
-36 143 -15 167 79 31 117 72 159 246 246 150 75 191 82 282 45 133 -53 170
-32 220 120 9 28 30 72 47 98 27 44 40 52 167 112 75 36 148 71 162 77 63 31
78 149 25 194 -21 19 -38 23 -88 23 -34 -1 -77 -7 -94 -15z"/>
<path d="M13823 6250 c-77 -40 -104 -138 -53 -202 10 -14 45 -38 77 -55 32
-17 430 -191 884 -387 927 -399 886 -386 959 -320 47 43 52 81 20 144 -35 68
-84 106 -174 136 -44 14 -182 74 -306 132 -124 58 -387 174 -584 259 -198 84
-430 188 -517 229 -184 88 -237 99 -306 64z"/>
<path d="M4200 5719 c-77 -47 -261 -144 -930 -487 -125 -64 -237 -129 -252
-145 -35 -37 -39 -111 -9 -148 17 -21 27 -24 93 -23 91 1 172 34 429 174 96
52 341 181 543 285 203 105 381 202 397 217 39 35 41 103 5 145 -22 26 -31 28
-108 31 l-83 4 -85 -53z"/>
<path d="M4850 5510 c-57 -18 -620 -301 -965 -484 -203 -108 -482 -254 -620
-323 -325 -163 -384 -213 -372 -307 6 -46 44 -86 81 -86 60 0 228 72 351 150
177 112 326 116 367 11 5 -14 16 -108 24 -210 22 -270 16 -284 -180 -400 -117
-69 -146 -101 -146 -162 0 -122 100 -169 206 -96 27 18 85 53 129 77 44 24
307 188 585 364 278 175 529 334 559 352 69 43 126 51 202 30 32 -9 70 -16 84
-16 63 0 115 55 115 120 0 100 -110 185 -304 235 -51 13 -136 43 -187 66 -184
81 -242 94 -299 64 -51 -26 -64 -82 -36 -148 17 -41 45 -65 109 -97 29 -14 58
-37 67 -52 27 -50 -3 -83 -174 -196 -216 -142 -338 -212 -368 -212 -42 0 -76
20 -91 54 -16 34 -43 280 -41 367 4 144 38 176 360 346 137 72 313 163 390
203 186 96 274 155 299 202 l20 37 -23 46 c-30 62 -80 85 -142 65z"/>
<path d="M17575 5316 c-23 -7 -75 -33 -116 -58 -160 -98 -391 -201 -587 -262
-46 -14 -163 -42 -260 -62 -195 -40 -270 -64 -298 -95 -27 -30 -26 -119 1
-149 32 -35 74 -52 129 -51 106 1 374 58 601 127 181 54 236 62 287 37 42 -21
397 -311 428 -350 56 -71 22 -134 -115 -215 -257 -152 -619 -260 -870 -260
-160 0 -330 32 -580 107 -44 13 -96 27 -116 30 -51 9 -115 -11 -157 -49 -32
-30 -36 -39 -36 -82 1 -59 25 -109 65 -133 35 -21 234 -82 389 -118 87 -20
146 -26 345 -33 141 -4 281 -4 340 1 294 27 625 161 1000 404 156 101 193 152
183 255 -8 82 -45 129 -160 205 -155 102 -286 202 -350 266 -49 49 -58 63 -58
94 0 30 9 46 49 88 26 29 56 66 65 84 19 38 21 128 3 162 -29 57 -108 82 -182
57z"/>
</g>
</svg>
